<svg xmlns="http://www.w3.org/2000/svg" version="1.1" xmlns:xlink="http://www.w3.org/1999/xlink" viewBox="0 0 800 800" opacity="0.62"><defs><linearGradient x1="50%" y1="0%" x2="50%" y2="100%" id="hhhorizon-grad"><stop stop-color="hsl(353, 98%, 41%)" stop-opacity="1" offset="25%"></stop><stop stop-color="hsl(212, 72%, 59%)" stop-opacity="1" offset="100%"></stop></linearGradient><linearGradient x1="50%" y1="0%" x2="50%" y2="100%" id="hhhorizon-grad2"><stop stop-color="hsl(212, 72%, 59%)" stop-opacity="1" offset="0%"></stop><stop stop-color="hsl(353, 98%, 41%)" stop-opacity="1" offset="75%"></stop></linearGradient><clipPath id="SvgjsClipPath1062"><rect width="800" height="43" x="0" y="0"></rect><rect width="800" height="42" x="0" y="19"></rect><rect width="800" height="41" x="0" y="38"></rect><rect width="800" height="40" x="0" y="57"></rect><rect width="800" height="39" x="0" y="76"></rect><rect width="800" height="38" x="0" y="95"></rect><rect width="800" height="37" x="0" y="114"></rect><rect width="800" height="36" x="0" y="133"></rect><rect width="800" height="35" x="0" y="152"></rect><rect width="800" height="34" x="0" y="171"></rect><rect width="800" height="33" x="0" y="190"></rect><rect width="800" height="32" x="0" y="210"></rect><rect width="800" height="31" x="0" y="229"></rect><rect width="800" height="30" x="0" y="248"></rect><rect width="800" height="29" x="0" y="267"></rect><rect width="800" height="28" x="0" y="286"></rect><rect width="800" height="27" x="0" y="305"></rect><rect width="800" height="26" x="0" y="324"></rect><rect width="800" height="25" x="0" y="343"></rect><rect width="800" height="24" x="0" y="362"></rect><rect width="800" height="23" x="0" y="381"></rect><rect width="800" height="22" x="0" y="400"></rect><rect width="800" height="21" x="0" y="419"></rect><rect width="800" height="20" x="0" y="438"></rect><rect width="800" height="19" x="0" y="457"></rect><rect width="800" height="18" x="0" y="476"></rect><rect width="800" height="17" x="0" y="495"></rect><rect width="800" height="16" x="0" y="514"></rect><rect width="800" height="15" x="0" y="533"></rect><rect width="800" height="14" x="0" y="552"></rect><rect width="800" height="13" x="0" y="571"></rect><rect width="800" height="12" x="0" y="590"></rect><rect width="800" height="11" x="0" y="610"></rect><rect width="800" height="10" x="0" y="629"></rect><rect width="800" height="9" x="0" y="648"></rect><rect width="800" height="8" x="0" y="667"></rect><rect width="800" height="7" x="0" y="686"></rect><rect width="800" height="6" x="0" y="705"></rect><rect width="800" height="5" x="0" y="724"></rect><rect width="800" height="4" x="0" y="743"></rect><rect width="800" height="3" x="0" y="762"></rect><rect width="800" height="2" x="0" y="781"></rect><rect width="800" height="1" x="0" y="800"></rect></clipPath><clipPath><rect width="800" height="1" x="0" y="43"></rect><rect width="800" height="2" x="0" y="86"></rect><rect width="800" height="3" x="0" y="129"></rect><rect width="800" height="4" x="0" y="172"></rect><rect width="800" height="5" x="0" y="215"></rect><rect width="800" height="6" x="0" y="258"></rect><rect width="800" height="7" x="0" y="301"></rect><rect width="800" height="8" x="0" y="344"></rect><rect width="800" height="9" x="0" y="387"></rect><rect width="800" height="10" x="0" y="430"></rect><rect width="800" height="11" x="0" y="473"></rect><rect width="800" height="12" x="0" y="516"></rect><rect width="800" height="13" x="0" y="559"></rect><rect width="800" height="14" x="0" y="602"></rect><rect width="800" height="15" x="0" y="645"></rect><rect width="800" height="16" x="0" y="688"></rect><rect width="800" height="17" x="0" y="731"></rect><rect width="800" height="18" x="0" y="774"></rect><rect width="800" height="19" x="0" y="817"></rect></clipPath></defs><rect width="800" height="800" fill="url(#hhhorizon-grad)" clip-path="url(&quot;#SvgjsClipPath1062&quot;)"></rect><circle r="400" cx="400" cy="0" fill="url(#hhhorizon-grad)" clip-path="url(&quot;#SvgjsClipPath1062&quot;)"></circle><circle r="400" cx="400" cy="800" fill="url(#hhhorizon-grad)" clip-path="url(&quot;#SvgjsClipPath1062&quot;)"></circle></svg>