<svg xmlns="http://www.w3.org/2000/svg" version="1.1" xmlns:xlink="http://www.w3.org/1999/xlink" viewBox="0 0 800 800" id="qqquad">  <defs>
    <filter id="glow" x="-50%" y="-50%" width="200%" height="200%">
      <feGaussianBlur stdDeviation="3" result="coloredBlur" />
      <feMerge>
        <feMergeNode in="coloredBlur" />
        <feMergeNode in="SourceGraphic" />
      </feMerge>
    </filter>
  </defs><g shape-rendering="crispEdges" stroke-linejoin="round" fill="none" stroke-width="2" stroke="hsl(322, 62%, 45%)"><polygon points="700,0 700,100 800,100"></polygon><polygon points="600,100 700,100 600,0"></polygon><polygon points="700,150 650,150 700,100"></polygon><polygon points="600,100 650,150 650,100"></polygon><polygon points="650,150 600,150 650,200"></polygon><polygon points="700,150 700,200 650,200"></polygon><polygon points="800,200 800,100 700,100"></polygon><polygon points="500,100 600,0 600,100"></polygon><polygon points="400,0 500,100 500,0"></polygon><polygon points="450,150 500,150 500,100"></polygon><polygon points="400,150 400,100 450,100"></polygon><polygon points="450,150 450,200 400,200"></polygon><polygon points="450,200 450,150 500,150"></polygon><polygon points="550,100 550,150 600,150"></polygon><polygon points="500,100 550,150 500,150"></polygon><polygon points="550,200 500,200 550,150"></polygon><polygon points="600,200 600,150 550,200"></polygon><polygon points="600,200 600,250 550,250"></polygon><polygon points="550,250 500,250 550,200"></polygon><polygon points="550,300 550,250 500,300"></polygon><polygon points="550,300 600,300 550,250"></polygon><polygon points="450,200 500,250 450,250"></polygon><polygon points="450,200 400,200 450,250"></polygon><polygon points="450,250 400,250 450,300"></polygon><polygon points="500,250 500,300 450,250"></polygon><polygon points="500,300 500,350 450,350"></polygon><polygon points="450,350 450,300 400,300"></polygon><polygon points="450,400 450,350 400,350"></polygon><polygon points="450,400 500,400 500,350"></polygon><polygon points="600,300 600,400 500,300"></polygon><polygon points="700,200 800,300 700,300"></polygon><polygon points="700,300 600,300 700,200"></polygon><polygon points="600,400 600,300 700,400"></polygon><polygon points="800,300 800,400 700,400"></polygon><polygon points="300,0 400,100 300,100"></polygon><polygon points="200,100 300,0 300,100"></polygon><polygon points="300,100 300,150 250,100"></polygon><polygon points="250,100 200,100 250,150"></polygon><polygon points="250,150 200,150 250,200"></polygon><polygon points="300,200 250,150 250,200"></polygon><polygon points="350,100 400,100 400,150"></polygon><polygon points="350,150 350,100 300,150"></polygon><polygon points="300,150 350,200 300,200"></polygon><polygon points="350,150 400,200 400,150"></polygon><polygon points="200,100 200,0 100,0"></polygon><polygon points="100,100 0,0 0,100"></polygon><polygon points="0,100 100,100 0,200"></polygon><polygon points="100,100 200,200 200,100"></polygon><polygon points="150,250 200,200 200,250"></polygon><polygon points="150,250 150,200 100,200"></polygon><polygon points="100,250 150,250 100,300"></polygon><polygon points="200,300 200,250 150,250"></polygon><polygon points="100,300 100,200 0,200"></polygon><polygon points="100,300 100,400 0,400"></polygon><polygon points="100,400 200,300 100,300"></polygon><polygon points="350,250 350,200 400,200"></polygon><polygon points="350,250 350,200 300,250"></polygon><polygon points="350,275 325,275 325,250"></polygon><polygon points="300,275 325,250 300,250"></polygon><polygon points="325,275 300,300 325,300"></polygon><polygon points="350,275 325,300 350,300"></polygon><polygon points="350,250 400,300 350,300"></polygon><polygon points="250,250 300,250 250,200"></polygon><polygon points="250,200 250,250 200,200"></polygon><polygon points="250,250 250,300 200,300"></polygon><polygon points="300,300 300,250 250,300"></polygon><polygon points="300,350 250,350 250,300"></polygon><polygon points="200,300 250,350 200,350"></polygon><polygon points="200,350 250,400 200,400"></polygon><polygon points="250,350 300,400 250,400"></polygon><polygon points="400,350 350,300 350,350"></polygon><polygon points="350,300 350,350 300,350"></polygon><polygon points="350,350 325,350 350,375"></polygon><polygon points="325,375 325,350 300,350"></polygon><polygon points="300,375 325,400 325,375"></polygon><polygon points="350,375 350,400 325,375"></polygon><polygon points="400,400 400,350 350,350"></polygon><polygon points="350,400 400,450 400,400"></polygon><polygon points="300,450 300,400 350,400"></polygon><polygon points="350,500 350,450 300,500"></polygon><polygon points="350,450 400,500 350,500"></polygon><polygon points="200,500 300,400 200,400"></polygon><polygon points="250,550 300,550 250,500"></polygon><polygon points="250,550 250,500 200,500"></polygon><polygon points="200,600 250,550 200,550"></polygon><polygon points="300,550 300,600 250,600"></polygon><polygon points="400,550 350,500 350,550"></polygon><polygon points="350,550 300,550 300,500"></polygon><polygon points="350,550 350,600 300,600"></polygon><polygon points="400,600 350,600 400,550"></polygon><polygon points="100,500 200,400 100,400"></polygon><polygon points="100,500 0,400 100,400"></polygon><polygon points="100,500 0,600 100,600"></polygon><polygon points="200,500 200,550 150,500"></polygon><polygon points="150,550 100,500 100,550"></polygon><polygon points="150,550 150,600 100,600"></polygon><polygon points="150,600 200,550 200,600"></polygon><polygon points="0,600 0,800 200,800"></polygon><polygon points="400,650 400,600 350,650"></polygon><polygon points="350,600 300,650 300,600"></polygon><polygon points="350,650 350,700 300,650"></polygon><polygon points="400,700 400,650 350,650"></polygon><polygon points="300,600 300,700 200,700"></polygon><polygon points="200,700 300,700 300,800"></polygon><polygon points="400,800 300,700 300,800"></polygon><polygon points="800,400 800,500 700,500"></polygon><polygon points="700,400 650,400 700,450"></polygon><polygon points="650,450 650,400 600,400"></polygon><polygon points="650,500 600,500 650,450"></polygon><polygon points="700,450 650,450 650,500"></polygon><polygon points="650,500 650,550 700,500"></polygon><polygon points="650,500 600,500 600,550"></polygon><polygon points="650,600 600,550 600,600"></polygon><polygon points="700,550 650,600 700,600"></polygon><polygon points="800,500 700,500 800,600"></polygon><polygon points="600,400 600,450 550,450"></polygon><polygon points="550,450 500,450 550,400"></polygon><polygon points="550,500 550,450 500,450"></polygon><polygon points="600,450 600,500 550,450"></polygon><polygon points="500,450 500,400 450,400"></polygon><polygon points="450,400 450,450 400,450"></polygon><polygon points="450,450 400,450 400,500"></polygon><polygon points="500,500 500,450 450,500"></polygon><polygon points="500,500 500,550 450,500"></polygon><polygon points="400,500 400,550 450,500"></polygon><polygon points="450,550 450,600 400,600"></polygon><polygon points="450,600 500,600 500,550"></polygon><polygon points="600,550 600,500 550,500"></polygon><polygon points="550,500 550,550 500,550"></polygon><polygon points="550,600 500,550 500,600"></polygon><polygon points="600,550 550,550 600,600"></polygon><polygon points="600,700 600,600 500,600"></polygon><polygon points="500,600 500,650 450,650"></polygon><polygon points="400,600 450,650 450,600"></polygon><polygon points="450,700 450,650 400,700"></polygon><polygon points="500,650 500,700 450,700"></polygon><polygon points="400,800 400,700 500,800"></polygon><polygon points="600,700 600,750 550,700"></polygon><polygon points="500,750 550,700 550,750"></polygon><polygon points="500,750 500,800 550,800"></polygon><polygon points="600,750 600,800 550,750"></polygon><polygon points="800,600 700,600 700,700"></polygon><polygon points="700,600 700,700 600,600"></polygon><polygon points="600,800 700,800 600,700"></polygon><polygon points="800,700 700,800 700,700"></polygon></g><g fill="hsl(220, 62%, 45%)" stroke-width="3" stroke="hsl(220, 43%, 13%)"></g></svg>