<svg xmlns="http://www.w3.org/2000/svg" version="1.1" xmlns:xlink="http://www.w3.org/1999/xlink" viewBox="0 0 1422 800" width="1422" height="800"><defs>
    <filter id="glow" x="-50%" y="-50%" width="200%" height="200%">
      <feGaussianBlur stdDeviation="3" result="coloredBlur" />
      <feMerge>
        <feMergeNode in="coloredBlur" />
        <feMergeNode in="SourceGraphic" />
      </feMerge>
    </filter>
  </defs><g transform="scale(1) rotate(0) translate(0 0) skewX(0) skewY(0)" transform-origin="711 400"><rect width="2844" height="1600" x="-711" y="-400" fill="url(#rrreplicate-pattern3)"></rect></g><defs><pattern id="rrreplicate-pattern3" width="144" height="144" patternUnits="userSpaceOnUse" patternTransform="rotate(90)" stroke-opacity="0.23" stroke-width="1.6" fill="none" stroke="#ff9f00">
      <line x1="6" y1="0" x2="6" y2="144"></line><line x1="18" y1="0" x2="18" y2="144"></line><line x1="30" y1="0" x2="30" y2="144"></line><line x1="42" y1="0" x2="42" y2="144"></line><line x1="54" y1="0" x2="54" y2="144"></line><line x1="66" y1="0" x2="66" y2="144"></line><line x1="78" y1="0" x2="78" y2="144"></line><line x1="90" y1="0" x2="90" y2="144"></line><line x1="102" y1="0" x2="102" y2="144"></line><line x1="114" y1="0" x2="114" y2="144"></line><line x1="126" y1="0" x2="126" y2="144"></line><line x1="138" y1="0" x2="138" y2="144"></line>
      </pattern></defs></svg>