<svg xmlns="http://www.w3.org/2000/svg" version="1.1" xmlns:xlink="http://www.w3.org/1999/xlink" viewBox="0 0 800 800"><g fill="hsl(0, 100%, 42%)" transform="matrix(0.8,0,0,0.8,79.94999999999999,80.59999999999997)"><circle r="1" cx="405" cy="400" opacity="0.32"></circle><circle r="1" cx="403" cy="405" opacity="0.94"></circle><circle r="1" cx="397" cy="406" opacity="0.77"></circle><circle r="1" cx="392" cy="401" opacity="0.51"></circle><circle r="1" cx="395" cy="393" opacity="0.11"></circle><circle r="1" cx="404" cy="391" opacity="0.86"></circle><circle r="1" cx="411" cy="398" opacity="0.96"></circle><circle r="1" cx="408" cy="409" opacity="0.19"></circle><circle r="1" cx="396" cy="413" opacity="0.54"></circle><circle r="1" cx="386" cy="403" opacity="0.48"></circle><circle r="1" cx="389" cy="389" opacity="0.44"></circle><circle r="1" cx="404" cy="384" opacity="0.31"></circle><circle r="1" cx="416" cy="394" opacity="0.58"></circle><circle r="1" cx="414" cy="412" opacity="0.82"></circle><circle r="1" cx="397" cy="419" opacity="0.12"></circle><circle r="1" cx="381" cy="408" opacity="0.90"></circle><circle r="1" cx="383" cy="388" opacity="0.66"></circle><circle r="1" cx="401" cy="378" opacity="0.94"></circle><circle r="1" cx="421" cy="389" opacity="0.72"></circle><circle r="1" cx="421" cy="412" opacity="0.57"></circle><circle r="1" cx="401" cy="425" opacity="0.18"></circle><circle r="1" cx="378" cy="414" opacity="0.19"></circle><circle r="1" cx="375" cy="388" opacity="0.58"></circle><circle r="1" cx="397" cy="372" opacity="0.77"></circle><circle r="1" cx="423" cy="382" opacity="0.20"></circle><circle r="1" cx="428" cy="411" opacity="0.48"></circle><circle r="1" cx="406" cy="431" opacity="0.84"></circle><circle r="1" cx="376" cy="422" opacity="0.49"></circle><circle r="1" cx="368" cy="391" opacity="0.56"></circle><circle r="1" cx="391" cy="367" opacity="0.92"></circle><circle r="1.5" cx="424" cy="374" opacity="0.79"></circle><circle r="1.5" cx="436" cy="407" opacity="0.77"></circle><circle r="1.5" cx="413" cy="435" opacity="0.84"></circle><circle r="1.5" cx="376" cy="430" opacity="0.42"></circle><circle r="1.5" cx="361" cy="395" opacity="0.92"></circle><circle r="1.5" cx="383" cy="363" opacity="0.54"></circle><circle r="1.5" cx="423" cy="365" opacity="0.48"></circle><circle r="1.5" cx="443" cy="402" opacity="0.24"></circle><circle r="1.5" cx="421" cy="438" opacity="0.30"></circle><circle r="1.5" cx="378" cy="439" opacity="0.34"></circle><circle r="1.5" cx="354" cy="402" opacity="0.76"></circle><circle r="1.5" cx="374" cy="361" opacity="0.94"></circle><circle r="1.5" cx="420" cy="356" opacity="0.40"></circle><circle r="1.5" cx="448" cy="394" opacity="0.36"></circle><circle r="1.5" cx="431" cy="439" opacity="0.46"></circle><circle r="1.5" cx="383" cy="448" opacity="0.53"></circle><circle r="1.5" cx="349" cy="411" opacity="0.64"></circle><circle r="1.5" cx="364" cy="361" opacity="0.53"></circle><circle r="1.5" cx="414" cy="348" opacity="0.30"></circle><circle r="1.5" cx="453" cy="385" opacity="0.87"></circle><circle r="1.5" cx="442" cy="438" opacity="0.78"></circle><circle r="1.5" cx="390" cy="456" opacity="0.31"></circle><circle r="1.5" cx="346" cy="421" opacity="0.94"></circle><circle r="1.5" cx="353" cy="364" opacity="0.51"></circle><circle r="1.5" cx="406" cy="340" opacity="0.86"></circle><circle r="1.5" cx="455" cy="373" opacity="0.65"></circle><circle r="1.5" cx="452" cy="434" opacity="0.93"></circle><circle r="1.5" cx="399" cy="463" opacity="0.64"></circle><circle r="1.5" cx="345" cy="432" opacity="0.91"></circle><circle r="1.5" cx="342" cy="369" opacity="0.20"></circle><circle r="2" cx="396" cy="334" opacity="0.12"></circle><circle r="2" cx="455" cy="361" opacity="0.61"></circle><circle r="2" cx="463" cy="427" opacity="0.77"></circle><circle r="2" cx="410" cy="469" opacity="0.46"></circle><circle r="2" cx="346" cy="445" opacity="0.58"></circle><circle r="2" cx="332" cy="377" opacity="0.29"></circle><circle r="2" cx="384" cy="329" opacity="0.61"></circle><circle r="2" cx="452" cy="349" opacity="0.71"></circle><circle r="2" cx="472" cy="418" opacity="0.71"></circle><circle r="2" cx="423" cy="472" opacity="0.19"></circle><circle r="2" cx="350" cy="458" opacity="0.45"></circle><circle r="2" cx="324" cy="387" opacity="0.24"></circle><circle r="2" cx="370" cy="327" opacity="0.32"></circle><circle r="2" cx="447" cy="336" opacity="0.65"></circle><circle r="2" cx="480" cy="407" opacity="0.39"></circle><circle r="2" cx="437" cy="473" opacity="0.40"></circle><circle r="2" cx="357" cy="470" opacity="0.66"></circle><circle r="2" cx="316" cy="400" opacity="0.92"></circle><circle r="2" cx="356" cy="328" opacity="0.85"></circle><circle r="2" cx="439" cy="324" opacity="0.44"></circle><circle r="2" cx="486" cy="393" opacity="0.19"></circle><circle r="2" cx="452" cy="471" opacity="0.94"></circle><circle r="2" cx="366" cy="482" opacity="0.92"></circle><circle r="2" cx="312" cy="415" opacity="0.32"></circle><circle r="2" cx="341" cy="331" opacity="0.54"></circle><circle r="2" cx="428" cy="313" opacity="0.65"></circle><circle r="2" cx="490" cy="378" opacity="0.88"></circle><circle r="2" cx="467" cy="466" opacity="0.99"></circle><circle r="2" cx="379" cy="492" opacity="0.57"></circle><circle r="2" cx="309" cy="431" opacity="0.70"></circle><circle r="2.5" cx="326" cy="338" opacity="0.33"></circle><circle r="2.5" cx="414" cy="303" opacity="0.13"></circle><circle r="2.5" cx="491" cy="361" opacity="0.71"></circle><circle r="2.5" cx="482" cy="457" opacity="0.58"></circle><circle r="2.5" cx="394" cy="501" opacity="0.54"></circle><circle r="2.5" cx="310" cy="448" opacity="0.19"></circle><circle r="2.5" cx="311" cy="348" opacity="0.96"></circle><circle r="2.5" cx="398" cy="296" opacity="0.39"></circle><circle r="2.5" cx="488" cy="343" opacity="0.49"></circle><circle r="2.5" cx="495" cy="446" opacity="0.72"></circle><circle r="2.5" cx="411" cy="506" opacity="0.36"></circle><circle r="2.5" cx="314" cy="466" opacity="0.88"></circle><circle r="2.5" cx="298" cy="361" opacity="0.48"></circle><circle r="2.5" cx="380" cy="292" opacity="0.82"></circle><circle r="2.5" cx="482" cy="326" opacity="0.64"></circle><circle r="2.5" cx="508" cy="432" opacity="0.88"></circle><circle r="2.5" cx="430" cy="509" opacity="0.63"></circle><circle r="2.5" cx="322" cy="483" opacity="0.57"></circle><circle r="2.5" cx="287" cy="377" opacity="0.12"></circle><circle r="2.5" cx="361" cy="291" opacity="0.26"></circle><circle r="2.5" cx="473" cy="308" opacity="0.80"></circle><circle r="2.5" cx="517" cy="414" opacity="0.43"></circle><circle r="2.5" cx="450" cy="508" opacity="0.69"></circle><circle r="2.5" cx="333" cy="500" opacity="0.45"></circle><circle r="2.5" cx="279" cy="395" opacity="0.86"></circle><circle r="2.5" cx="340" cy="293" opacity="0.34"></circle><circle r="2.5" cx="460" cy="292" opacity="0.28"></circle><circle r="2.5" cx="524" cy="395" opacity="0.64"></circle><circle r="2.5" cx="470" cy="504" opacity="0.78"></circle><circle r="2.5" cx="347" cy="515" opacity="0.43"></circle><circle r="3" cx="274" cy="416" opacity="0.91"></circle><circle r="3" cx="320" cy="300" opacity="0.66"></circle><circle r="3" cx="444" cy="278" opacity="0.47"></circle><circle r="3" cx="528" cy="374" opacity="0.51"></circle><circle r="3" cx="490" cy="496" opacity="0.14"></circle><circle r="3" cx="365" cy="528" opacity="0.17"></circle><circle r="3" cx="272" cy="438" opacity="0.20"></circle><circle r="3" cx="300" cy="310" opacity="0.86"></circle><circle r="3" cx="425" cy="267" opacity="0.46"></circle><circle r="3" cx="527" cy="351" opacity="0.46"></circle><circle r="3" cx="509" cy="484" opacity="0.95"></circle><circle r="3" cx="386" cy="538" opacity="0.64"></circle><circle r="3" cx="274" cy="461" opacity="0.73"></circle><circle r="3" cx="282" cy="324" opacity="0.67"></circle><circle r="3" cx="403" cy="258" opacity="0.96"></circle><circle r="3" cx="523" cy="328" opacity="0.67"></circle><circle r="3" cx="527" cy="468" opacity="0.85"></circle><circle r="3" cx="409" cy="544" opacity="0.75"></circle><circle r="3" cx="281" cy="484" opacity="0.75"></circle><circle r="3" cx="265" cy="342" opacity="0.12"></circle><circle r="3" cx="379" cy="254" opacity="0.95"></circle><circle r="3" cx="514" cy="305" opacity="0.84"></circle><circle r="3" cx="542" cy="448" opacity="0.47"></circle><circle r="3" cx="434" cy="547" opacity="0.17"></circle><circle r="3" cx="291" cy="506" opacity="0.22"></circle><circle r="3" cx="252" cy="363" opacity="0.79"></circle><circle r="3" cx="354" cy="253" opacity="0.30"></circle><circle r="3" cx="502" cy="283" opacity="0.25"></circle><circle r="3" cx="554" cy="425" opacity="0.90"></circle><circle r="3" cx="459" cy="545" opacity="0.60"></circle><circle r="3.5" cx="307" cy="527" opacity="0.76"></circle><circle r="3.5" cx="242" cy="387" opacity="0.69"></circle><circle r="3.5" cx="328" cy="257" opacity="0.12"></circle><circle r="3.5" cx="484" cy="263" opacity="0.45"></circle><circle r="3.5" cx="562" cy="400" opacity="0.86"></circle><circle r="3.5" cx="485" cy="539" opacity="0.81"></circle><circle r="3.5" cx="326" cy="546" opacity="0.97"></circle><circle r="3.5" cx="235" cy="413" opacity="0.74"></circle><circle r="3.5" cx="302" cy="266" opacity="0.55"></circle><circle r="3.5" cx="463" cy="245" opacity="0.46"></circle><circle r="3.5" cx="566" cy="373" opacity="0.56"></circle><circle r="3.5" cx="511" cy="528" opacity="0.27"></circle><circle r="3.5" cx="349" cy="562" opacity="0.33"></circle><circle r="3.5" cx="234" cy="441" opacity="0.26"></circle><circle r="3.5" cx="277" cy="279" opacity="0.97"></circle><circle r="3.5" cx="439" cy="231" opacity="0.41"></circle><circle r="3.5" cx="565" cy="344" opacity="0.40"></circle><circle r="3.5" cx="535" cy="512" opacity="0.26"></circle><circle r="3.5" cx="375" cy="575" opacity="0.31"></circle><circle r="3.5" cx="237" cy="470" opacity="0.77"></circle><circle r="3.5" cx="254" cy="297" opacity="0.93"></circle><circle r="3.5" cx="411" cy="221" opacity="0.69"></circle><circle r="3.5" cx="559" cy="315" opacity="0.71"></circle><circle r="3.5" cx="556" cy="492" opacity="0.78"></circle><circle r="3.5" cx="404" cy="582" opacity="0.25"></circle><circle r="3.5" cx="246" cy="499" opacity="0.89"></circle><circle r="3.5" cx="234" cy="320" opacity="0.87"></circle><circle r="3.5" cx="381" cy="215" opacity="0.97"></circle><circle r="3.5" cx="548" cy="287" opacity="0.61"></circle><circle r="3.5" cx="575" cy="467" opacity="0.49"></circle><circle r="4" cx="434" cy="585" opacity="0.30"></circle><circle r="4" cx="259" cy="527" opacity="0.19"></circle><circle r="4" cx="217" cy="346" opacity="0.50"></circle><circle r="4" cx="350" cy="215" opacity="0.47"></circle><circle r="4" cx="532" cy="260" opacity="0.36"></circle><circle r="4" cx="590" cy="439" opacity="0.71"></circle><circle r="4" cx="466" cy="583" opacity="0.39"></circle><circle r="4" cx="278" cy="553" opacity="0.18"></circle><circle r="4" cx="205" cy="376" opacity="0.17"></circle><circle r="4" cx="318" cy="220" opacity="0.29"></circle><circle r="4" cx="511" cy="235" opacity="0.21"></circle><circle r="4" cx="600" cy="408" opacity="0.60"></circle><circle r="4" cx="498" cy="575" opacity="0.92"></circle><circle r="4" cx="301" cy="576" opacity="0.98"></circle><circle r="4" cx="197" cy="408" opacity="0.72"></circle><circle r="4" cx="286" cy="231" opacity="0.98"></circle><circle r="4" cx="485" cy="214" opacity="0.46"></circle><circle r="4" cx="604" cy="375" opacity="0.11"></circle><circle r="4" cx="529" cy="562" opacity="0.70"></circle><circle r="4" cx="329" cy="596" opacity="0.59"></circle><circle r="4" cx="195" cy="442" opacity="0.77"></circle><circle r="4" cx="256" cy="247" opacity="0.19"></circle><circle r="4" cx="455" cy="196" opacity="0.57"></circle><circle r="4" cx="603" cy="340" opacity="0.42"></circle><circle r="4" cx="558" cy="543" opacity="0.75"></circle><circle r="4" cx="361" cy="610" opacity="0.61"></circle><circle r="4" cx="199" cy="477" opacity="0.32"></circle><circle r="4" cx="228" cy="269" opacity="0.65"></circle><circle r="4" cx="422" cy="184" opacity="0.87"></circle><circle r="4" cx="597" cy="305" opacity="0.83"></circle><circle r="4.5" cx="584" cy="519" opacity="0.44"></circle><circle r="4.5" cx="395" cy="620" opacity="0.14"></circle><circle r="4.5" cx="209" cy="512" opacity="0.12"></circle><circle r="4.5" cx="204" cy="295" opacity="0.52"></circle><circle r="4.5" cx="386" cy="177" opacity="0.63"></circle><circle r="4.5" cx="584" cy="271" opacity="0.32"></circle><circle r="4.5" cx="607" cy="490" opacity="0.85"></circle><circle r="4.5" cx="432" cy="624" opacity="0.16"></circle><circle r="4.5" cx="225" cy="545" opacity="0.26"></circle><circle r="4.5" cx="184" cy="327" opacity="0.91"></circle><circle r="4.5" cx="349" cy="176" opacity="0.18"></circle><circle r="4.5" cx="565" cy="239" opacity="0.75"></circle><circle r="4.5" cx="625" cy="456" opacity="0.70"></circle><circle r="4.5" cx="470" cy="622" opacity="0.27"></circle><circle r="4.5" cx="247" cy="576" opacity="0.88"></circle><circle r="4.5" cx="169" cy="362" opacity="0.36"></circle><circle r="4.5" cx="311" cy="182" opacity="0.95"></circle><circle r="4.5" cx="540" cy="209" opacity="0.34"></circle><circle r="4.5" cx="637" cy="419" opacity="0.47"></circle><circle r="4.5" cx="508" cy="613" opacity="0.91"></circle><circle r="4.5" cx="274" cy="604" opacity="0.83"></circle><circle r="4.5" cx="159" cy="400" opacity="0.72"></circle><circle r="4.5" cx="274" cy="194" opacity="0.77"></circle><circle r="4.5" cx="510" cy="184" opacity="0.24"></circle><circle r="4.5" cx="643" cy="380" opacity="0.82"></circle><circle r="4.5" cx="545" cy="597" opacity="0.40"></circle><circle r="4.5" cx="307" cy="627" opacity="0.12"></circle><circle r="4.5" cx="157" cy="440" opacity="0.74"></circle><circle r="4.5" cx="238" cy="213" opacity="0.80"></circle><circle r="4.5" cx="475" cy="163" opacity="0.82"></circle><circle r="5" cx="642" cy="340" opacity="0.16"></circle><circle r="5" cx="579" cy="576" opacity="0.14"></circle><circle r="5" cx="344" cy="645" opacity="0.85"></circle><circle r="5" cx="160" cy="481" opacity="0.65"></circle><circle r="5" cx="205" cy="238" opacity="0.52"></circle><circle r="5" cx="436" cy="148" opacity="0.97"></circle><circle r="5" cx="635" cy="299" opacity="0.36"></circle><circle r="5" cx="610" cy="548" opacity="0.63"></circle><circle r="5" cx="384" cy="657" opacity="0.90"></circle><circle r="5" cx="171" cy="522" opacity="0.44"></circle><circle r="5" cx="176" cy="268" opacity="0.19"></circle><circle r="5" cx="395" cy="139" opacity="0.22"></circle><circle r="5" cx="621" cy="258" opacity="0.90"></circle><circle r="5" cx="637" cy="514" opacity="0.26"></circle><circle r="5" cx="427" cy="663" opacity="0.39"></circle><circle r="5" cx="189" cy="561" opacity="0.20"></circle><circle r="5" cx="152" cy="304" opacity="0.78"></circle><circle r="5" cx="351" cy="137" opacity="0.29"></circle><circle r="5" cx="599" cy="220" opacity="0.25"></circle><circle r="5" cx="658" cy="476" opacity="0.93"></circle><circle r="5" cx="471" cy="661" opacity="0.47"></circle><circle r="5" cx="214" cy="597" opacity="0.11"></circle><circle r="5" cx="133" cy="345" opacity="0.67"></circle><circle r="5" cx="307" cy="143" opacity="0.27"></circle><circle r="5" cx="571" cy="186" opacity="0.49"></circle><circle r="5" cx="673" cy="434" opacity="0.70"></circle><circle r="5" cx="515" cy="651" opacity="0.92"></circle><circle r="5" cx="245" cy="630" opacity="0.95"></circle><circle r="5" cx="122" cy="388" opacity="0.86"></circle><circle r="5.5" cx="264" cy="156" opacity="0.28"></circle><circle r="5.5" cx="537" cy="155" opacity="0.89"></circle><circle r="5.5" cx="681" cy="389" opacity="0.93"></circle><circle r="5.5" cx="557" cy="635" opacity="0.55"></circle><circle r="5.5" cx="282" cy="658" opacity="0.45"></circle><circle r="5.5" cx="118" cy="435" opacity="0.72"></circle><circle r="5.5" cx="222" cy="177" opacity="0.29"></circle><circle r="5.5" cx="498" cy="131" opacity="0.33"></circle><circle r="5.5" cx="682" cy="342" opacity="0.37"></circle><circle r="5.5" cx="598" cy="610" opacity="0.14"></circle><circle r="5.5" cx="324" cy="679" opacity="0.91"></circle><circle r="5.5" cx="121" cy="482" opacity="0.90"></circle><circle r="5.5" cx="184" cy="204" opacity="0.39"></circle><circle r="5.5" cx="454" cy="112" opacity="0.54"></circle><circle r="5.5" cx="674" cy="295" opacity="0.57"></circle><circle r="5.5" cx="634" cy="579" opacity="0.81"></circle><circle r="5.5" cx="370" cy="694" opacity="0.17"></circle><circle r="5.5" cx="133" cy="529" opacity="0.83"></circle><circle r="5.5" cx="150" cy="239" opacity="0.12"></circle><circle r="5.5" cx="406" cy="101" opacity="0.35"></circle><circle r="5.5" cx="659" cy="249" opacity="0.87"></circle><circle r="5.5" cx="665" cy="542" opacity="0.89"></circle><circle r="5.5" cx="418" cy="701" opacity="0.86"></circle><circle r="5.5" cx="152" cy="574" opacity="0.44"></circle><circle r="5.5" cx="121" cy="279" opacity="0.61"></circle><circle r="5.5" cx="357" cy="98" opacity="0.87"></circle><circle r="5.5" cx="635" cy="205" opacity="0.97"></circle><circle r="5.5" cx="691" cy="499" opacity="0.86"></circle><circle r="5.5" cx="468" cy="700" opacity="0.34"></circle><circle r="5.5" cx="179" cy="616" opacity="0.65"></circle><circle r="6" cx="99" cy="325" opacity="0.78"></circle><circle r="6" cx="307" cy="103" opacity="0.27"></circle><circle r="6" cx="604" cy="164" opacity="0.43"></circle><circle r="6" cx="709" cy="451" opacity="0.41"></circle><circle r="6" cx="518" cy="691" opacity="1.00"></circle><circle r="6" cx="214" cy="654" opacity="0.34"></circle><circle r="6" cx="85" cy="374" opacity="0.78"></circle><circle r="6" cx="257" cy="117" opacity="0.46"></circle><circle r="6" cx="567" cy="129" opacity="0.40"></circle><circle r="6" cx="719" cy="400" opacity="0.87"></circle><circle r="6" cx="567" cy="673" opacity="0.44"></circle><circle r="6" cx="255" cy="686" opacity="0.93"></circle><circle r="6" cx="79" cy="426" opacity="0.36"></circle><circle r="6" cx="209" cy="139" opacity="0.88"></circle><circle r="6" cx="523" cy="100" opacity="0.41"></circle><circle r="6" cx="721" cy="347" opacity="0.73"></circle><circle r="6" cx="613" cy="647" opacity="0.73"></circle><circle r="6" cx="301" cy="712" opacity="0.84"></circle><circle r="6" cx="81" cy="479" opacity="0.39"></circle><circle r="6" cx="165" cy="169" opacity="0.17"></circle><circle r="6" cx="474" cy="78" opacity="0.83"></circle><circle r="6" cx="714" cy="294" opacity="0.84"></circle><circle r="6" cx="655" cy="613" opacity="0.95"></circle><circle r="6" cx="352" cy="730" opacity="0.47"></circle><circle r="6" cx="93" cy="532" opacity="0.19"></circle><circle r="6" cx="126" cy="207" opacity="0.89"></circle><circle r="6" cx="421" cy="64" opacity="0.75"></circle><circle r="6" cx="698" cy="242" opacity="0.93"></circle><circle r="6" cx="692" cy="571" opacity="0.37"></circle><circle r="6" cx="407" cy="739" opacity="0.61"></circle><circle r="6.5" cx="113" cy="584" opacity="0.53"></circle><circle r="6.5" cx="92" cy="252" opacity="0.57"></circle><circle r="6.5" cx="365" cy="59" opacity="0.27"></circle><circle r="6.5" cx="673" cy="191" opacity="0.44"></circle><circle r="6.5" cx="722" cy="524" opacity="0.76"></circle><circle r="6.5" cx="463" cy="740" opacity="0.64"></circle><circle r="6.5" cx="142" cy="632" opacity="0.52"></circle><circle r="6.5" cx="66" cy="302" opacity="0.82"></circle><circle r="6.5" cx="309" cy="63" opacity="0.10"></circle><circle r="6.5" cx="640" cy="145" opacity="0.55"></circle><circle r="6.5" cx="743" cy="471" opacity="0.48"></circle><circle r="6.5" cx="519" cy="731" opacity="0.53"></circle><circle r="6.5" cx="180" cy="676" opacity="0.24"></circle><circle r="6.5" cx="49" cy="357" opacity="0.10"></circle><circle r="6.5" cx="253" cy="77" opacity="0.85"></circle><circle r="6.5" cx="599" cy="105" opacity="0.63"></circle><circle r="6.5" cx="757" cy="415" opacity="0.81"></circle><circle r="6.5" cx="574" cy="713" opacity="0.68"></circle><circle r="6.5" cx="225" cy="713" opacity="0.64"></circle><circle r="6.5" cx="40" cy="414" opacity="0.71"></circle><circle r="6.5" cx="199" cy="100" opacity="0.52"></circle><circle r="6.5" cx="551" cy="71" opacity="0.88"></circle><circle r="6.5" cx="760" cy="356" opacity="0.35"></circle><circle r="6.5" cx="627" cy="685" opacity="0.79"></circle><circle r="6.5" cx="276" cy="743" opacity="0.69"></circle><circle r="6.5" cx="41" cy="474" opacity="0.22"></circle><circle r="6.5" cx="149" cy="132" opacity="0.24"></circle><circle r="6.5" cx="497" cy="45" opacity="0.23"></circle><circle r="6.5" cx="754" cy="296" opacity="0.27"></circle><circle r="6.5" cx="675" cy="648" opacity="0.89"></circle><circle r="7" cx="332" cy="765" opacity="0.17"></circle><circle r="7" cx="52" cy="533" opacity="0.70"></circle><circle r="7" cx="104" cy="173" opacity="0.11"></circle><circle r="7" cx="438" cy="28" opacity="0.70"></circle><circle r="7" cx="738" cy="237" opacity="0.61"></circle><circle r="7" cx="716" cy="604" opacity="0.28"></circle><circle r="7" cx="392" cy="777" opacity="0.31"></circle><circle r="7" cx="73" cy="591" opacity="0.16"></circle><circle r="7" cx="65" cy="221" opacity="0.28"></circle><circle r="7" cx="377" cy="20" opacity="0.36"></circle><circle r="7" cx="712" cy="181" opacity="0.45"></circle><circle r="7" cx="751" cy="552" opacity="0.60"></circle><circle r="7" cx="454" cy="780" opacity="0.79"></circle><circle r="7" cx="104" cy="646" opacity="0.72"></circle><circle r="7" cx="35" cy="276" opacity="0.18"></circle><circle r="7" cx="314" cy="23" opacity="1.00"></circle><circle r="7" cx="677" cy="129" opacity="0.28"></circle><circle r="7" cx="777" cy="495" opacity="0.95"></circle><circle r="7" cx="517" cy="772" opacity="0.93"></circle><circle r="7" cx="144" cy="695" opacity="0.60"></circle><circle r="7" cx="14" cy="336" opacity="0.40"></circle><circle r="7" cx="252" cy="36" opacity="0.93"></circle><circle r="7" cx="633" cy="83" opacity="0.33"></circle><circle r="7" cx="793" cy="433" opacity="0.79"></circle><circle r="7" cx="579" cy="753" opacity="0.73"></circle><circle r="7" cx="192" cy="738" opacity="0.69"></circle><circle r="7" cx="2" cy="400" opacity="0.22"></circle><circle r="7" cx="192" cy="60" opacity="0.57"></circle><circle r="7" cx="581" cy="44" opacity="0.94"></circle><circle r="7" cx="799" cy="368" opacity="0.93"></circle><circle r="7.5" cx="637" cy="724" opacity="0.30"></circle><circle r="7.5" cx="247" cy="773" opacity="0.32"></circle><circle r="7.5" cx="1" cy="465" opacity="0.66"></circle><circle r="7.5" cx="135" cy="94" opacity="0.83"></circle><circle r="7.5" cx="523" cy="13" opacity="0.67"></circle><circle r="7.5" cx="795" cy="302" opacity="0.85"></circle><circle r="7.5" cx="691" cy="686" opacity="0.32"></circle><circle r="7.5" cx="309" cy="799" opacity="0.32"></circle><circle r="7.5" cx="12" cy="531" opacity="0.38"></circle><circle r="7.5" cx="84" cy="137" opacity="0.87"></circle><circle r="7.5" cx="459" cy="-8" opacity="0.64"></circle><circle r="7.5" cx="779" cy="236" opacity="0.66"></circle><circle r="7.5" cx="739" cy="638" opacity="0.53"></circle><circle r="7.5" cx="374" cy="814" opacity="0.97"></circle><circle r="7.5" cx="33" cy="595" opacity="1.00"></circle></g></svg>